<?xml version="1.0" encoding="utf-8" standalone="no"?>
<!DOCTYPE svg PUBLIC "-//W3C//DTD SVG 1.1//EN"
  "http://www.w3.org/Graphics/SVG/1.1/DTD/svg11.dtd">
<svg xmlns:xlink="http://www.w3.org/1999/xlink" width="568.373437pt" height="567.274375pt" viewBox="0 0 568.373437 567.274375" xmlns="http://www.w3.org/2000/svg" version="1.1">
 <metadata>
  <rdf:RDF xmlns:dc="http://purl.org/dc/elements/1.1/" xmlns:cc="http://creativecommons.org/ns#" xmlns:rdf="http://www.w3.org/1999/02/22-rdf-syntax-ns#">
   <cc:Work>
    <dc:type rdf:resource="http://purl.org/dc/dcmitype/StillImage"/>
    <dc:date>2023-05-09T22:36:54.906177</dc:date>
    <dc:format>image/svg+xml</dc:format>
    <dc:creator>
     <cc:Agent>
      <dc:title>Matplotlib v3.5.1, https://matplotlib.org/</dc:title>
     </cc:Agent>
    </dc:creator>
   </cc:Work>
  </rdf:RDF>
 </metadata>
 <defs>
  <style type="text/css">*{stroke-linejoin: round; stroke-linecap: butt}</style>
 </defs>
 <g id="figure_1">
  <g id="patch_1">
   <path d="M 0 567.274375 
L 568.373437 567.274375 
L 568.373437 0 
L 0 0 
L 0 567.274375 
z
" style="fill: none"/>
  </g>
  <g id="axes_1">
   <g id="patch_2">
    <path d="M 58.523438 260.868125 
L 302.698438 260.868125 
L 302.698438 22.318125 
L 58.523438 22.318125 
z
" style="fill: #ffffff"/>
   </g>
   <g id="PolyCollection_1">
    <defs>
     <path id="m67c49a5f5c" d="M 69.622301 -317.249432 
L 69.622301 -317.249432 
L 71.842074 -325.572806 
L 72.112927 -325.834867 
L 72.416829 -324.364638 
L 72.757813 -329.430275 
L 73.140404 -328.503198 
L 73.569677 -331.737402 
L 74.05133 -333.590526 
L 74.591753 -331.56911 
L 75.198118 -336.194413 
L 75.878471 -333.521306 
L 76.641839 -338.768473 
L 77.498352 -340.204012 
L 78.459376 -340.192027 
L 79.537662 -351.412047 
L 80.747519 -343.830436 
L 82.105001 -346.380711 
L 83.62812 -349.609134 
L 85.337089 -350.562173 
L 87.254583 -356.755702 
L 89.406046 -357.159517 
L 91.820028 -358.276504 
L 94.528561 -362.270276 
L 97.567584 -366.982905 
L 100.977424 -373.730216 
L 104.803328 -372.814269 
L 109.096062 -374.047929 
L 113.91259 -384.881187 
L 119.316822 -385.346983 
L 125.380471 -387.28029 
L 132.183997 -391.055193 
L 139.817678 -388.077306 
L 148.38281 -394.812017 
L 157.993045 -401.313531 
L 168.775907 -404.245127 
L 180.874476 -403.204295 
L 194.449295 -404.558006 
L 209.680492 -403.160402 
L 226.770176 -414.276444 
L 245.945116 -411.755317 
L 267.459754 -411.754861 
L 291.599574 -412.890056 
L 291.599574 -424.60817 
L 291.599574 -424.60817 
L 267.459754 -420.325129 
L 245.945116 -418.717652 
L 226.770176 -419.1123 
L 209.680492 -418.247367 
L 194.449295 -416.698454 
L 180.874476 -414.726497 
L 168.775907 -411.033792 
L 157.993045 -412.198263 
L 148.38281 -402.851675 
L 139.817678 -400.980937 
L 132.183997 -404.819128 
L 125.380471 -405.458313 
L 119.316822 -397.030854 
L 113.91259 -396.630424 
L 109.096062 -389.033686 
L 104.803328 -382.308713 
L 100.977424 -384.012991 
L 97.567584 -379.726132 
L 94.528561 -374.719643 
L 91.820028 -369.373581 
L 89.406046 -367.228838 
L 87.254583 -366.803143 
L 85.337089 -357.82542 
L 83.62812 -359.435124 
L 82.105001 -357.64804 
L 80.747519 -353.968254 
L 79.537662 -362.448552 
L 78.459376 -347.366402 
L 77.498352 -347.05426 
L 76.641839 -352.633736 
L 75.878471 -344.547904 
L 75.198118 -346.169785 
L 74.591753 -336.468467 
L 74.05133 -343.096909 
L 73.569677 -341.192581 
L 73.140404 -331.309358 
L 72.757813 -333.525171 
L 72.416829 -326.936148 
L 72.112927 -331.129049 
L 71.842074 -328.269924 
L 69.622301 -317.249432 
z
" style="stroke: #0000ff; stroke-opacity: 0.2"/>
    </defs>
    <g clip-path="url(#p06f76b0ef4)">
     <use xlink:href="#m67c49a5f5c" x="0" y="567.274375" style="fill: #0000ff; fill-opacity: 0.2; stroke: #0000ff; stroke-opacity: 0.2"/>
    </g>
   </g>
   <g id="PolyCollection_2">
    <defs>
     <path id="m877b776a0e" d="M 69.622301 -517.59241 
L 69.622301 -508.241926 
L 71.842074 -455.122755 
L 72.112927 -456.422173 
L 72.416829 -460.753726 
L 72.757813 -452.354599 
L 73.140404 -445.447668 
L 73.569677 -444.712633 
L 74.05133 -447.532703 
L 74.591753 -446.13598 
L 75.198118 -439.4428 
L 75.878471 -449.157731 
L 76.641839 -444.620402 
L 77.498352 -445.718196 
L 78.459376 -447.451644 
L 79.537662 -440.022729 
L 80.747519 -438.9236 
L 82.105001 -442.676369 
L 83.62812 -439.40454 
L 85.337089 -444.668139 
L 87.254583 -438.026345 
L 89.406046 -436.189925 
L 91.820028 -438.141462 
L 94.528561 -436.680582 
L 97.567584 -430.713348 
L 100.977424 -431.054751 
L 104.803328 -438.957303 
L 109.096062 -441.386924 
L 113.91259 -432.985623 
L 119.316822 -433.557326 
L 125.380471 -431.379841 
L 132.183997 -432.466062 
L 139.817678 -429.480166 
L 148.38281 -433.024528 
L 157.993045 -432.018427 
L 168.775907 -430.291448 
L 180.874476 -431.716647 
L 194.449295 -424.170922 
L 209.680492 -425.003334 
L 226.770176 -430.990354 
L 245.945116 -429.816541 
L 267.459754 -425.827243 
L 291.599574 -429.767824 
L 291.599574 -438.22088 
L 291.599574 -438.22088 
L 267.459754 -436.096585 
L 245.945116 -438.02737 
L 226.770176 -438.747458 
L 209.680492 -438.438207 
L 194.449295 -439.736321 
L 180.874476 -438.39887 
L 168.775907 -440.231734 
L 157.993045 -439.471178 
L 148.38281 -440.282784 
L 139.817678 -440.752598 
L 132.183997 -440.650569 
L 125.380471 -438.63698 
L 119.316822 -441.692141 
L 113.91259 -443.446436 
L 109.096062 -447.061655 
L 104.803328 -442.479304 
L 100.977424 -440.308404 
L 97.567584 -440.669454 
L 94.528561 -447.093818 
L 91.820028 -448.087566 
L 89.406046 -443.328557 
L 87.254583 -445.626335 
L 85.337089 -455.426876 
L 83.62812 -451.896278 
L 82.105001 -451.851243 
L 80.747519 -451.263481 
L 79.537662 -453.995571 
L 78.459376 -452.311944 
L 77.498352 -458.987532 
L 76.641839 -456.245966 
L 75.878471 -461.354135 
L 75.198118 -449.481575 
L 74.591753 -456.696962 
L 74.05133 -458.610852 
L 73.569677 -453.448049 
L 73.140404 -460.192071 
L 72.757813 -466.927271 
L 72.416829 -473.130138 
L 72.112927 -471.527705 
L 71.842074 -459.767522 
L 69.622301 -517.59241 
z
" style="stroke: #ff0000; stroke-opacity: 0.2"/>
    </defs>
    <g clip-path="url(#p06f76b0ef4)">
     <use xlink:href="#m877b776a0e" x="0" y="567.274375" style="fill: #ff0000; fill-opacity: 0.2; stroke: #ff0000; stroke-opacity: 0.2"/>
    </g>
   </g>
   <g id="matplotlib.axis_1">
    <g id="xtick_1">
     <g id="line2d_1">
      <defs>
       <path id="m647e4b736f" d="M 0 0 
L 0 3.5 
" style="stroke: #000000; stroke-width: 0.8"/>
      </defs>
      <g>
       <use xlink:href="#m647e4b736f" x="69.622301" y="260.868125" style="stroke: #000000; stroke-width: 0.8"/>
      </g>
     </g>
    </g>
    <g id="xtick_2">
     <g id="line2d_2">
      <g>
       <use xlink:href="#m647e4b736f" x="114.017756" y="260.868125" style="stroke: #000000; stroke-width: 0.8"/>
      </g>
     </g>
    </g>
    <g id="xtick_3">
     <g id="line2d_3">
      <g>
       <use xlink:href="#m647e4b736f" x="158.41321" y="260.868125" style="stroke: #000000; stroke-width: 0.8"/>
      </g>
     </g>
    </g>
    <g id="xtick_4">
     <g id="line2d_4">
      <g>
       <use xlink:href="#m647e4b736f" x="202.808665" y="260.868125" style="stroke: #000000; stroke-width: 0.8"/>
      </g>
     </g>
    </g>
    <g id="xtick_5">
     <g id="line2d_5">
      <g>
       <use xlink:href="#m647e4b736f" x="247.204119" y="260.868125" style="stroke: #000000; stroke-width: 0.8"/>
      </g>
     </g>
    </g>
    <g id="xtick_6">
     <g id="line2d_6">
      <g>
       <use xlink:href="#m647e4b736f" x="291.599574" y="260.868125" style="stroke: #000000; stroke-width: 0.8"/>
      </g>
     </g>
    </g>
   </g>
   <g id="matplotlib.axis_2">
    <g id="ytick_1">
     <g id="line2d_7">
      <defs>
       <path id="m1375f0c8a0" d="M 0 0 
L -3.5 0 
" style="stroke: #000000; stroke-width: 0.8"/>
      </defs>
      <g>
       <use xlink:href="#m1375f0c8a0" x="58.523438" y="250.024943" style="stroke: #000000; stroke-width: 0.8"/>
      </g>
     </g>
     <g id="text_1">
      <text style="font: 10px 'sans-serif'; text-anchor: end" x="51.523438" y="253.824162" transform="rotate(-0, 51.523438, 253.824162)">−1.00</text>
     </g>
    </g>
    <g id="ytick_2">
     <g id="line2d_8">
      <g>
       <use xlink:href="#m1375f0c8a0" x="58.523438" y="221.324208" style="stroke: #000000; stroke-width: 0.8"/>
      </g>
     </g>
     <g id="text_2">
      <text style="font: 10px 'sans-serif'; text-anchor: end" x="51.523438" y="225.123426" transform="rotate(-0, 51.523438, 225.123426)">−0.75</text>
     </g>
    </g>
    <g id="ytick_3">
     <g id="line2d_9">
      <g>
       <use xlink:href="#m1375f0c8a0" x="58.523438" y="192.623472" style="stroke: #000000; stroke-width: 0.8"/>
      </g>
     </g>
     <g id="text_3">
      <text style="font: 10px 'sans-serif'; text-anchor: end" x="51.523438" y="196.422691" transform="rotate(-0, 51.523438, 196.422691)">−0.50</text>
     </g>
    </g>
    <g id="ytick_4">
     <g id="line2d_10">
      <g>
       <use xlink:href="#m1375f0c8a0" x="58.523438" y="163.922737" style="stroke: #000000; stroke-width: 0.8"/>
      </g>
     </g>
     <g id="text_4">
      <text style="font: 10px 'sans-serif'; text-anchor: end" x="51.523438" y="167.721956" transform="rotate(-0, 51.523438, 167.721956)">−0.25</text>
     </g>
    </g>
    <g id="ytick_5">
     <g id="line2d_11">
      <g>
       <use xlink:href="#m1375f0c8a0" x="58.523438" y="135.222001" style="stroke: #000000; stroke-width: 0.8"/>
      </g>
     </g>
     <g id="text_5">
      <text style="font: 10px 'sans-serif'; text-anchor: end" x="51.523438" y="139.02122" transform="rotate(-0, 51.523438, 139.02122)">0.00</text>
     </g>
    </g>
    <g id="ytick_6">
     <g id="line2d_12">
      <g>
       <use xlink:href="#m1375f0c8a0" x="58.523438" y="106.521266" style="stroke: #000000; stroke-width: 0.8"/>
      </g>
     </g>
     <g id="text_6">
      <text style="font: 10px 'sans-serif'; text-anchor: end" x="51.523438" y="110.320485" transform="rotate(-0, 51.523438, 110.320485)">0.25</text>
     </g>
    </g>
    <g id="ytick_7">
     <g id="line2d_13">
      <g>
       <use xlink:href="#m1375f0c8a0" x="58.523438" y="77.820531" style="stroke: #000000; stroke-width: 0.8"/>
      </g>
     </g>
     <g id="text_7">
      <text style="font: 10px 'sans-serif'; text-anchor: end" x="51.523438" y="81.619749" transform="rotate(-0, 51.523438, 81.619749)">0.50</text>
     </g>
    </g>
    <g id="ytick_8">
     <g id="line2d_14">
      <g>
       <use xlink:href="#m1375f0c8a0" x="58.523438" y="49.119795" style="stroke: #000000; stroke-width: 0.8"/>
      </g>
     </g>
     <g id="text_8">
      <text style="font: 10px 'sans-serif'; text-anchor: end" x="51.523438" y="52.919014" transform="rotate(-0, 51.523438, 52.919014)">0.75</text>
     </g>
    </g>
    <g id="text_9">
     <text style="font: 10px 'sans-serif'; text-anchor: middle" x="14.798438" y="141.593125" transform="rotate(-90, 14.798438, 141.593125)">R</text>
    </g>
   </g>
   <g id="line2d_15">
    <path d="M 69.622301 250.024943 
L 71.842074 240.450105 
L 72.112927 239.116248 
L 72.416829 241.736419 
L 72.757813 235.794809 
L 73.140404 237.407367 
L 73.569677 230.922387 
L 74.05133 229.122423 
L 74.591753 233.301788 
L 75.198118 226.284964 
L 75.878471 228.863634 
L 76.641839 222.667016 
L 77.498352 223.573213 
L 78.459376 223.644887 
L 79.537662 210.381306 
L 80.747519 218.335737 
L 82.105001 215.311554 
L 83.62812 212.64906 
L 85.337089 213.016761 
L 87.254583 205.776629 
L 89.406046 205.373525 
L 91.820028 203.697684 
L 94.528561 198.813125 
L 97.567584 193.63256 
L 100.977424 188.743834 
L 104.803328 189.737581 
L 109.096062 185.412424 
L 113.91259 176.315736 
L 119.316822 175.981962 
L 125.380471 171.14961 
L 132.183997 169.515969 
L 139.817678 172.823299 
L 148.38281 168.524038 
L 157.993045 160.751807 
L 168.775907 159.472228 
L 180.874476 158.281227 
L 194.449295 156.730979 
L 209.680492 156.022569 
L 226.770176 150.511409 
L 245.945116 151.972984 
L 267.459754 151.151287 
L 291.599574 148.650315 
" clip-path="url(#p06f76b0ef4)" style="fill: none; stroke: #0000ff; stroke-width: 1.5; stroke-linecap: square"/>
   </g>
   <g id="line2d_16">
    <path d="M 69.622301 54.041607 
L 71.842074 109.872259 
L 72.112927 102.903479 
L 72.416829 99.805803 
L 72.757813 107.167925 
L 73.140404 114.434909 
L 73.569677 117.76256 
L 74.05133 114.08396 
L 74.591753 115.785972 
L 75.198118 122.855867 
L 75.878471 111.875227 
L 76.641839 116.834829 
L 77.498352 115.110547 
L 78.459376 117.540431 
L 79.537662 120.526703 
L 80.747519 122.185917 
L 82.105001 119.827624 
L 83.62812 121.40619 
L 85.337089 116.953612 
L 87.254583 125.525904 
L 89.406046 127.475234 
L 91.820028 124.078671 
L 94.528561 125.665756 
L 97.567584 131.610948 
L 100.977424 131.806619 
L 104.803328 126.667259 
L 109.096062 123.00165 
L 113.91259 128.864049 
L 119.316822 129.547552 
L 125.380471 132.177167 
L 132.183997 130.533149 
L 139.817678 132.328583 
L 148.38281 130.579544 
L 157.993045 131.441285 
L 168.775907 132.382938 
L 180.874476 132.104523 
L 194.449295 134.906926 
L 209.680492 135.466868 
L 226.770176 132.401117 
L 245.945116 133.34349 
L 267.459754 136.42792 
L 291.599574 133.406173 
" clip-path="url(#p06f76b0ef4)" style="fill: none; stroke: #ff0000; stroke-width: 1.5; stroke-linecap: square"/>
   </g>
   <g id="line2d_17"/>
   <g id="line2d_18"/>
   <g id="line2d_19">
    <path d="M 69.622301 135.222001 
L 291.599574 135.222001 
" clip-path="url(#p06f76b0ef4)" style="fill: none; stroke-dasharray: 5.55,2.4; stroke-dashoffset: 0; stroke: #000000; stroke-width: 1.5"/>
   </g>
   <g id="line2d_20">
    <defs>
     <path id="ma22392a776" d="M 0 3 
C 0.795609 3 1.55874 2.683901 2.12132 2.12132 
C 2.683901 1.55874 3 0.795609 3 0 
C 3 -0.795609 2.683901 -1.55874 2.12132 -2.12132 
C 1.55874 -2.683901 0.795609 -3 0 -3 
C -0.795609 -3 -1.55874 -2.683901 -2.12132 -2.12132 
C -2.683901 -1.55874 -3 -0.795609 -3 0 
C -3 0.795609 -2.683901 1.55874 -2.12132 2.12132 
C -1.55874 2.683901 -0.795609 3 0 3 
z
" style="stroke: #000000"/>
    </defs>
    <g clip-path="url(#p06f76b0ef4)">
     <use xlink:href="#ma22392a776" x="80.747519" y="218.335737" style="stroke: #000000"/>
    </g>
   </g>
   <g id="line2d_21">
    <g clip-path="url(#p06f76b0ef4)">
     <use xlink:href="#ma22392a776" x="119.316822" y="175.981962" style="stroke: #000000"/>
    </g>
   </g>
   <g id="line2d_22">
    <g clip-path="url(#p06f76b0ef4)">
     <use xlink:href="#ma22392a776" x="157.993045" y="160.751807" style="stroke: #000000"/>
    </g>
   </g>
   <g id="patch_3">
    <path d="M 58.523438 260.868125 
L 58.523438 22.318125 
" style="fill: none; stroke: #000000; stroke-width: 0.8; stroke-linejoin: miter; stroke-linecap: square"/>
   </g>
   <g id="patch_4">
    <path d="M 302.698438 260.868125 
L 302.698438 22.318125 
" style="fill: none; stroke: #000000; stroke-width: 0.8; stroke-linejoin: miter; stroke-linecap: square"/>
   </g>
   <g id="patch_5">
    <path d="M 58.523438 260.868125 
L 302.698438 260.868125 
" style="fill: none; stroke: #000000; stroke-width: 0.8; stroke-linejoin: miter; stroke-linecap: square"/>
   </g>
   <g id="patch_6">
    <path d="M 58.523438 22.318125 
L 302.698438 22.318125 
" style="fill: none; stroke: #000000; stroke-width: 0.8; stroke-linejoin: miter; stroke-linecap: square"/>
   </g>
   <g id="text_10">
    <text style="font: 12px 'sans-serif'; text-anchor: middle" x="180.610938" y="16.318125" transform="rotate(-0, 180.610938, 16.318125)">longitudinal, n=100</text>
   </g>
   <g id="legend_1">
    <g id="patch_7">
     <path d="M 212.54375 74.3525 
L 295.698438 74.3525 
Q 297.698438 74.3525 297.698438 72.3525 
L 297.698438 29.318125 
Q 297.698438 27.318125 295.698438 27.318125 
L 212.54375 27.318125 
Q 210.54375 27.318125 210.54375 29.318125 
L 210.54375 72.3525 
Q 210.54375 74.3525 212.54375 74.3525 
z
" style="fill: #ffffff; opacity: 0.8; stroke: #cccccc; stroke-linejoin: miter"/>
    </g>
    <g id="text_11">
     <text style="font: 10px 'sans-serif'; text-anchor: start" x="226.364063" y="38.916562" transform="rotate(-0, 226.364063, 38.916562)">Hypothesis</text>
    </g>
    <g id="line2d_23">
     <path d="M 214.54375 50.094687 
L 224.54375 50.094687 
L 234.54375 50.094687 
" style="fill: none; stroke: #0000ff; stroke-width: 1.5; stroke-linecap: square"/>
    </g>
    <g id="text_12">
     <text style="font: 10px 'sans-serif'; text-anchor: start" x="242.54375" y="53.594687" transform="rotate(-0, 242.54375, 53.594687)">marker</text>
    </g>
    <g id="line2d_24">
     <path d="M 214.54375 64.772812 
L 224.54375 64.772812 
L 234.54375 64.772812 
" style="fill: none; stroke: #ff0000; stroke-width: 1.5; stroke-linecap: square"/>
    </g>
    <g id="text_13">
     <text style="font: 10px 'sans-serif'; text-anchor: start" x="242.54375" y="68.272812" transform="rotate(-0, 242.54375, 68.272812)">expansion</text>
    </g>
   </g>
  </g>
  <g id="axes_2">
   <g id="patch_8">
    <path d="M 316.998437 260.868125 
L 561.173437 260.868125 
L 561.173437 22.318125 
L 316.998437 22.318125 
z
" style="fill: #ffffff"/>
   </g>
   <g id="PolyCollection_3">
    <defs>
     <path id="m6adb6bc722" d="M 328.097301 -317.249432 
L 328.097301 -317.249432 
L 330.317074 -325.311599 
L 330.587927 -325.746366 
L 330.891829 -326.701371 
L 331.232813 -327.414703 
L 331.615404 -328.608107 
L 332.044677 -330.845755 
L 332.52633 -331.438616 
L 333.066753 -332.705516 
L 333.673118 -334.450473 
L 334.353471 -336.984298 
L 335.116839 -338.574552 
L 335.973352 -341.888237 
L 336.934376 -342.948253 
L 338.012662 -345.553795 
L 339.222519 -347.609822 
L 340.580001 -351.19183 
L 342.10312 -352.805126 
L 343.812089 -356.289204 
L 345.729583 -360.444307 
L 347.881046 -361.989159 
L 350.295028 -364.718835 
L 353.003561 -371.582291 
L 356.042584 -372.43827 
L 359.452424 -372.635944 
L 363.278328 -378.01089 
L 367.571062 -380.243117 
L 372.38759 -384.52485 
L 377.791822 -387.754124 
L 383.855471 -391.698294 
L 390.658997 -394.342846 
L 398.292678 -396.786298 
L 406.85781 -400.323883 
L 416.468045 -403.440289 
L 427.250907 -405.608199 
L 439.349476 -406.778133 
L 452.924295 -408.318129 
L 468.155492 -412.018752 
L 485.245176 -414.331059 
L 504.420116 -414.36568 
L 525.934754 -416.106792 
L 550.074574 -416.97601 
L 550.074574 -420.141273 
L 550.074574 -420.141273 
L 525.934754 -418.494897 
L 504.420116 -417.033345 
L 485.245176 -417.764066 
L 468.155492 -415.5381 
L 452.924295 -411.369563 
L 439.349476 -409.165963 
L 427.250907 -408.327022 
L 416.468045 -406.132423 
L 406.85781 -403.607455 
L 398.292678 -399.563509 
L 390.658997 -398.452577 
L 383.855471 -394.080259 
L 377.791822 -391.649231 
L 372.38759 -389.324767 
L 367.571062 -385.144201 
L 363.278328 -382.113237 
L 359.452424 -378.018783 
L 356.042584 -376.02418 
L 353.003561 -375.415222 
L 350.295028 -369.561099 
L 347.881046 -365.385621 
L 345.729583 -363.247828 
L 343.812089 -359.628106 
L 342.10312 -355.706766 
L 340.580001 -354.112541 
L 339.222519 -350.101449 
L 338.012662 -348.743543 
L 336.934376 -346.052393 
L 335.973352 -343.275991 
L 335.116839 -340.735011 
L 334.353471 -339.363425 
L 333.673118 -336.958544 
L 333.066753 -335.218535 
L 332.52633 -332.555011 
L 332.044677 -332.039966 
L 331.615404 -329.921212 
L 331.232813 -328.737679 
L 330.891829 -328.259394 
L 330.587927 -327.249263 
L 330.317074 -326.129903 
L 328.097301 -317.249432 
z
" style="stroke: #0000ff; stroke-opacity: 0.2"/>
    </defs>
    <g clip-path="url(#pc75e93729b)">
     <use xlink:href="#m6adb6bc722" x="0" y="567.274375" style="fill: #0000ff; fill-opacity: 0.2; stroke: #0000ff; stroke-opacity: 0.2"/>
    </g>
   </g>
   <g id="PolyCollection_4">
    <defs>
     <path id="m3b752d87df" d="M 328.097301 -503.573555 
L 328.097301 -499.928318 
L 330.317074 -462.260603 
L 330.587927 -460.054991 
L 330.891829 -459.192195 
L 331.232813 -457.039717 
L 331.615404 -456.23192 
L 332.044677 -454.85796 
L 332.52633 -453.624007 
L 333.066753 -452.991946 
L 333.673118 -450.719828 
L 334.353471 -450.599298 
L 335.116839 -448.309529 
L 335.973352 -447.300261 
L 336.934376 -446.729137 
L 338.012662 -446.004028 
L 339.222519 -446.917735 
L 340.580001 -444.35208 
L 342.10312 -442.88714 
L 343.812089 -442.832943 
L 345.729583 -440.434138 
L 347.881046 -440.261988 
L 350.295028 -440.207017 
L 353.003561 -438.069421 
L 356.042584 -438.85578 
L 359.452424 -438.220555 
L 363.278328 -437.478888 
L 367.571062 -436.461453 
L 372.38759 -435.747899 
L 377.791822 -433.846931 
L 383.855471 -434.891378 
L 390.658997 -435.198553 
L 398.292678 -433.757118 
L 406.85781 -434.765122 
L 416.468045 -433.816315 
L 427.250907 -435.156048 
L 439.349476 -432.692741 
L 452.924295 -432.277993 
L 468.155492 -432.931417 
L 485.245176 -432.276853 
L 504.420116 -431.096757 
L 525.934754 -431.563293 
L 550.074574 -430.638266 
L 550.074574 -432.789686 
L 550.074574 -432.789686 
L 525.934754 -434.608292 
L 504.420116 -433.767578 
L 485.245176 -436.169233 
L 468.155492 -436.017674 
L 452.924295 -435.816487 
L 439.349476 -435.025 
L 427.250907 -437.00482 
L 416.468045 -436.952392 
L 406.85781 -436.794163 
L 398.292678 -436.22966 
L 390.658997 -438.179536 
L 383.855471 -437.809748 
L 377.791822 -437.201615 
L 372.38759 -439.558429 
L 367.571062 -439.628289 
L 363.278328 -440.593332 
L 359.452424 -440.588224 
L 356.042584 -443.210346 
L 353.003561 -441.020113 
L 350.295028 -442.21243 
L 347.881046 -443.712063 
L 345.729583 -444.057271 
L 343.812089 -446.017346 
L 342.10312 -446.232098 
L 340.580001 -449.682862 
L 339.222519 -449.443541 
L 338.012662 -450.770496 
L 336.934376 -449.269385 
L 335.973352 -450.226692 
L 335.116839 -452.864498 
L 334.353471 -454.459323 
L 333.673118 -453.40152 
L 333.066753 -457.411506 
L 332.52633 -456.556563 
L 332.044677 -459.682185 
L 331.615404 -460.60783 
L 331.232813 -461.72015 
L 330.891829 -462.976869 
L 330.587927 -466.324698 
L 330.317074 -465.553537 
L 328.097301 -503.573555 
z
" style="stroke: #ff0000; stroke-opacity: 0.2"/>
    </defs>
    <g clip-path="url(#pc75e93729b)">
     <use xlink:href="#m3b752d87df" x="0" y="567.274375" style="fill: #ff0000; fill-opacity: 0.2; stroke: #ff0000; stroke-opacity: 0.2"/>
    </g>
   </g>
   <g id="matplotlib.axis_3">
    <g id="xtick_7">
     <g id="line2d_25">
      <g>
       <use xlink:href="#m647e4b736f" x="328.097301" y="260.868125" style="stroke: #000000; stroke-width: 0.8"/>
      </g>
     </g>
    </g>
    <g id="xtick_8">
     <g id="line2d_26">
      <g>
       <use xlink:href="#m647e4b736f" x="372.492756" y="260.868125" style="stroke: #000000; stroke-width: 0.8"/>
      </g>
     </g>
    </g>
    <g id="xtick_9">
     <g id="line2d_27">
      <g>
       <use xlink:href="#m647e4b736f" x="416.88821" y="260.868125" style="stroke: #000000; stroke-width: 0.8"/>
      </g>
     </g>
    </g>
    <g id="xtick_10">
     <g id="line2d_28">
      <g>
       <use xlink:href="#m647e4b736f" x="461.283665" y="260.868125" style="stroke: #000000; stroke-width: 0.8"/>
      </g>
     </g>
    </g>
    <g id="xtick_11">
     <g id="line2d_29">
      <g>
       <use xlink:href="#m647e4b736f" x="505.679119" y="260.868125" style="stroke: #000000; stroke-width: 0.8"/>
      </g>
     </g>
    </g>
    <g id="xtick_12">
     <g id="line2d_30">
      <g>
       <use xlink:href="#m647e4b736f" x="550.074574" y="260.868125" style="stroke: #000000; stroke-width: 0.8"/>
      </g>
     </g>
    </g>
   </g>
   <g id="matplotlib.axis_4">
    <g id="ytick_9">
     <g id="line2d_31">
      <g>
       <use xlink:href="#m1375f0c8a0" x="316.998437" y="250.024943" style="stroke: #000000; stroke-width: 0.8"/>
      </g>
     </g>
    </g>
    <g id="ytick_10">
     <g id="line2d_32">
      <g>
       <use xlink:href="#m1375f0c8a0" x="316.998437" y="221.324208" style="stroke: #000000; stroke-width: 0.8"/>
      </g>
     </g>
    </g>
    <g id="ytick_11">
     <g id="line2d_33">
      <g>
       <use xlink:href="#m1375f0c8a0" x="316.998437" y="192.623472" style="stroke: #000000; stroke-width: 0.8"/>
      </g>
     </g>
    </g>
    <g id="ytick_12">
     <g id="line2d_34">
      <g>
       <use xlink:href="#m1375f0c8a0" x="316.998437" y="163.922737" style="stroke: #000000; stroke-width: 0.8"/>
      </g>
     </g>
    </g>
    <g id="ytick_13">
     <g id="line2d_35">
      <g>
       <use xlink:href="#m1375f0c8a0" x="316.998437" y="135.222001" style="stroke: #000000; stroke-width: 0.8"/>
      </g>
     </g>
    </g>
    <g id="ytick_14">
     <g id="line2d_36">
      <g>
       <use xlink:href="#m1375f0c8a0" x="316.998437" y="106.521266" style="stroke: #000000; stroke-width: 0.8"/>
      </g>
     </g>
    </g>
    <g id="ytick_15">
     <g id="line2d_37">
      <g>
       <use xlink:href="#m1375f0c8a0" x="316.998437" y="77.820531" style="stroke: #000000; stroke-width: 0.8"/>
      </g>
     </g>
    </g>
    <g id="ytick_16">
     <g id="line2d_38">
      <g>
       <use xlink:href="#m1375f0c8a0" x="316.998437" y="49.119795" style="stroke: #000000; stroke-width: 0.8"/>
      </g>
     </g>
    </g>
   </g>
   <g id="line2d_39">
    <path d="M 328.097301 250.024943 
L 330.317074 241.522244 
L 330.587927 240.78802 
L 330.891829 239.76056 
L 331.232813 239.197256 
L 331.615404 237.998558 
L 332.044677 235.864114 
L 332.52633 235.283585 
L 333.066753 233.37072 
L 333.673118 231.612236 
L 334.353471 229.200994 
L 335.116839 227.602922 
L 335.973352 224.64317 
L 336.934376 222.723521 
L 338.012662 220.156214 
L 339.222519 218.464104 
L 340.580001 214.753346 
L 342.10312 213.021924 
L 343.812089 209.42198 
L 345.729583 205.488638 
L 347.881046 203.625958 
L 350.295028 200.309912 
L 353.003561 193.93065 
L 356.042584 193.002512 
L 359.452424 192.190108 
L 363.278328 186.987127 
L 367.571062 184.611813 
L 372.38759 180.447943 
L 377.791822 177.487774 
L 383.855471 174.335528 
L 390.658997 171.03279 
L 398.292678 169.041767 
L 406.85781 165.262241 
L 416.468045 162.45375 
L 427.250907 160.3473 
L 439.349476 159.380514 
L 452.924295 157.360085 
L 468.155492 153.598934 
L 485.245176 151.236186 
L 504.420116 151.758017 
L 525.934754 149.884037 
L 550.074574 148.627166 
" clip-path="url(#pc75e93729b)" style="fill: none; stroke: #0000ff; stroke-width: 1.5; stroke-linecap: square"/>
   </g>
   <g id="line2d_40">
    <path d="M 328.097301 65.499521 
L 330.317074 103.371382 
L 330.587927 103.961212 
L 330.891829 106.354295 
L 331.232813 107.825923 
L 331.615404 108.701962 
L 332.044677 110.029035 
L 332.52633 112.322421 
L 333.066753 112.03979 
L 333.673118 115.08877 
L 334.353471 114.833224 
L 335.116839 116.515787 
L 335.973352 118.465997 
L 336.934376 119.22157 
L 338.012662 118.682431 
L 339.222519 119.181019 
L 340.580001 120.257193 
L 342.10312 122.755933 
L 343.812089 122.918489 
L 345.729583 125.056103 
L 347.881046 125.258668 
L 350.295028 126.052946 
L 353.003561 127.74345 
L 356.042584 126.311057 
L 359.452424 127.830911 
L 363.278328 128.245301 
L 367.571062 129.111519 
L 372.38759 129.62022 
L 377.791822 131.894586 
L 383.855471 130.916439 
L 390.658997 130.602707 
L 398.292678 132.228997 
L 406.85781 131.488551 
L 416.468045 131.927232 
L 427.250907 131.140466 
L 439.349476 133.431842 
L 452.924295 133.18467 
L 468.155492 132.757217 
L 485.245176 133.022502 
L 504.420116 134.858409 
L 525.934754 134.390749 
L 550.074574 135.592574 
" clip-path="url(#pc75e93729b)" style="fill: none; stroke: #ff0000; stroke-width: 1.5; stroke-linecap: square"/>
   </g>
   <g id="line2d_41"/>
   <g id="line2d_42"/>
   <g id="line2d_43">
    <path d="M 328.097301 135.222001 
L 550.074574 135.222001 
" clip-path="url(#pc75e93729b)" style="fill: none; stroke-dasharray: 5.55,2.4; stroke-dashoffset: 0; stroke: #000000; stroke-width: 1.5"/>
   </g>
   <g id="line2d_44">
    <g clip-path="url(#pc75e93729b)">
     <use xlink:href="#ma22392a776" x="339.222519" y="218.464104" style="stroke: #000000"/>
    </g>
   </g>
   <g id="line2d_45">
    <g clip-path="url(#pc75e93729b)">
     <use xlink:href="#ma22392a776" x="377.791822" y="177.487774" style="stroke: #000000"/>
    </g>
   </g>
   <g id="line2d_46">
    <g clip-path="url(#pc75e93729b)">
     <use xlink:href="#ma22392a776" x="416.468045" y="162.45375" style="stroke: #000000"/>
    </g>
   </g>
   <g id="patch_9">
    <path d="M 316.998437 260.868125 
L 316.998437 22.318125 
" style="fill: none; stroke: #000000; stroke-width: 0.8; stroke-linejoin: miter; stroke-linecap: square"/>
   </g>
   <g id="patch_10">
    <path d="M 561.173437 260.868125 
L 561.173437 22.318125 
" style="fill: none; stroke: #000000; stroke-width: 0.8; stroke-linejoin: miter; stroke-linecap: square"/>
   </g>
   <g id="patch_11">
    <path d="M 316.998437 260.868125 
L 561.173437 260.868125 
" style="fill: none; stroke: #000000; stroke-width: 0.8; stroke-linejoin: miter; stroke-linecap: square"/>
   </g>
   <g id="patch_12">
    <path d="M 316.998437 22.318125 
L 561.173437 22.318125 
" style="fill: none; stroke: #000000; stroke-width: 0.8; stroke-linejoin: miter; stroke-linecap: square"/>
   </g>
   <g id="text_14">
    <text style="font: 12px 'sans-serif'; text-anchor: middle" x="439.085937" y="16.318125" transform="rotate(-0, 439.085937, 16.318125)">longitudinal, n=1000</text>
   </g>
   <g id="legend_2">
    <g id="patch_13">
     <path d="M 471.01875 74.3525 
L 554.173437 74.3525 
Q 556.173437 74.3525 556.173437 72.3525 
L 556.173437 29.318125 
Q 556.173437 27.318125 554.173437 27.318125 
L 471.01875 27.318125 
Q 469.01875 27.318125 469.01875 29.318125 
L 469.01875 72.3525 
Q 469.01875 74.3525 471.01875 74.3525 
z
" style="fill: #ffffff; opacity: 0.8; stroke: #cccccc; stroke-linejoin: miter"/>
    </g>
    <g id="text_15">
     <text style="font: 10px 'sans-serif'; text-anchor: start" x="484.839062" y="38.916562" transform="rotate(-0, 484.839062, 38.916562)">Hypothesis</text>
    </g>
    <g id="line2d_47">
     <path d="M 473.01875 50.094687 
L 483.01875 50.094687 
L 493.01875 50.094687 
" style="fill: none; stroke: #0000ff; stroke-width: 1.5; stroke-linecap: square"/>
    </g>
    <g id="text_16">
     <text style="font: 10px 'sans-serif'; text-anchor: start" x="501.01875" y="53.594687" transform="rotate(-0, 501.01875, 53.594687)">marker</text>
    </g>
    <g id="line2d_48">
     <path d="M 473.01875 64.772812 
L 483.01875 64.772812 
L 493.01875 64.772812 
" style="fill: none; stroke: #ff0000; stroke-width: 1.5; stroke-linecap: square"/>
    </g>
    <g id="text_17">
     <text style="font: 10px 'sans-serif'; text-anchor: start" x="501.01875" y="68.272812" transform="rotate(-0, 501.01875, 68.272812)">expansion</text>
    </g>
   </g>
  </g>
  <g id="axes_3">
   <g id="patch_14">
    <path d="M 58.523438 529.718125 
L 302.698438 529.718125 
L 302.698438 291.168125 
L 58.523438 291.168125 
z
" style="fill: #ffffff"/>
   </g>
   <g id="PolyCollection_5">
    <defs>
     <path id="mf38c4a2578" d="M 69.622301 -48.399432 
L 69.622301 -48.399432 
L 71.842074 -57.361789 
L 72.112927 -57.986427 
L 72.416829 -58.14718 
L 72.757813 -63.621833 
L 73.140404 -61.638861 
L 73.569677 -61.990899 
L 74.05133 -61.226789 
L 74.591753 -66.225514 
L 75.198118 -72.774237 
L 75.878471 -66.263381 
L 76.641839 -74.047965 
L 77.498352 -73.289917 
L 78.459376 -80.915091 
L 79.537662 -82.790176 
L 80.747519 -78.577903 
L 82.105001 -85.194374 
L 83.62812 -92.124759 
L 85.337089 -83.1182 
L 87.254583 -100.182575 
L 89.406046 -94.694183 
L 91.820028 -103.284878 
L 94.528561 -107.737273 
L 97.567584 -107.392964 
L 100.977424 -99.95415 
L 104.803328 -110.136781 
L 109.096062 -117.266435 
L 113.91259 -113.837259 
L 119.316822 -116.541054 
L 125.380471 -125.736058 
L 132.183997 -126.224913 
L 139.817678 -138.838129 
L 148.38281 -126.725634 
L 157.993045 -120.371749 
L 168.775907 -130.80381 
L 180.874476 -131.139647 
L 194.449295 -138.686294 
L 209.680492 -137.236421 
L 226.770176 -144.124191 
L 245.945116 -145.000427 
L 267.459754 -143.495719 
L 291.599574 -150.954701 
L 291.599574 -163.124575 
L 291.599574 -163.124575 
L 267.459754 -162.004908 
L 245.945116 -161.786484 
L 226.770176 -166.834689 
L 209.680492 -149.019599 
L 194.449295 -157.499676 
L 180.874476 -151.94914 
L 168.775907 -149.559974 
L 157.993045 -142.107574 
L 148.38281 -150.806989 
L 139.817678 -153.464459 
L 132.183997 -140.345371 
L 125.380471 -137.496534 
L 119.316822 -132.206617 
L 113.91259 -136.606056 
L 109.096062 -137.206961 
L 104.803328 -132.781807 
L 100.977424 -124.617744 
L 97.567584 -133.212295 
L 94.528561 -128.52533 
L 91.820028 -128.768747 
L 89.406046 -117.818361 
L 87.254583 -127.302239 
L 85.337089 -101.440364 
L 83.62812 -114.320907 
L 82.105001 -111.256105 
L 80.747519 -101.807011 
L 79.537662 -104.752307 
L 78.459376 -102.618374 
L 77.498352 -85.024699 
L 76.641839 -85.416565 
L 75.878471 -96.060953 
L 75.198118 -85.727699 
L 74.591753 -73.520864 
L 74.05133 -74.038402 
L 73.569677 -79.58409 
L 73.140404 -92.167645 
L 72.757813 -74.7766 
L 72.416829 -78.200267 
L 72.112927 -60.574598 
L 71.842074 -90.352535 
L 69.622301 -48.399432 
z
" style="stroke: #0000ff; stroke-opacity: 0.2"/>
    </defs>
    <g clip-path="url(#pe3c2664c26)">
     <use xlink:href="#mf38c4a2578" x="0" y="567.274375" style="fill: #0000ff; fill-opacity: 0.2; stroke: #0000ff; stroke-opacity: 0.2"/>
    </g>
   </g>
   <g id="PolyCollection_6">
    <defs>
     <path id="m8854e44537" d="M 69.622301 -265.263068 
L 69.622301 -258.982093 
L 71.842074 -170.117701 
L 72.112927 -170.081051 
L 72.416829 -172.439963 
L 72.757813 -171.584024 
L 73.140404 -179.31969 
L 73.569677 -172.330135 
L 74.05133 -178.924475 
L 74.591753 -166.249862 
L 75.198118 -162.602748 
L 75.878471 -175.485964 
L 76.641839 -160.998092 
L 77.498352 -172.243423 
L 78.459376 -161.895187 
L 79.537662 -167.523186 
L 80.747519 -167.807003 
L 82.105001 -167.142133 
L 83.62812 -159.650812 
L 85.337089 -166.932369 
L 87.254583 -169.011012 
L 89.406046 -173.482307 
L 91.820028 -159.848301 
L 94.528561 -161.777915 
L 97.567584 -160.165108 
L 100.977424 -167.293113 
L 104.803328 -161.248419 
L 109.096062 -153.35902 
L 113.91259 -155.007907 
L 119.316822 -160.08049 
L 125.380471 -159.723087 
L 132.183997 -165.036373 
L 139.817678 -161.170748 
L 148.38281 -159.634059 
L 157.993045 -149.458003 
L 168.775907 -157.128577 
L 180.874476 -151.784964 
L 194.449295 -154.196653 
L 209.680492 -153.047479 
L 226.770176 -159.119167 
L 245.945116 -157.643772 
L 267.459754 -157.967856 
L 291.599574 -158.636554 
L 291.599574 -178.336077 
L 291.599574 -178.336077 
L 267.459754 -175.145087 
L 245.945116 -175.233209 
L 226.770176 -178.801393 
L 209.680492 -167.839645 
L 194.449295 -169.474611 
L 180.874476 -171.370185 
L 168.775907 -170.640213 
L 157.993045 -163.185207 
L 148.38281 -176.420269 
L 139.817678 -172.146821 
L 132.183997 -175.989685 
L 125.380471 -169.632347 
L 119.316822 -170.617307 
L 113.91259 -176.116119 
L 109.096062 -162.327415 
L 104.803328 -174.047771 
L 100.977424 -178.480568 
L 97.567584 -178.736299 
L 94.528561 -174.13411 
L 91.820028 -178.42956 
L 89.406046 -189.375683 
L 87.254583 -184.384448 
L 85.337089 -176.29866 
L 83.62812 -177.367953 
L 82.105001 -184.33187 
L 80.747519 -189.379052 
L 79.537662 -193.780909 
L 78.459376 -183.416589 
L 77.498352 -187.811965 
L 76.641839 -183.086379 
L 75.878471 -192.671973 
L 75.198118 -179.29935 
L 74.591753 -186.672676 
L 74.05133 -193.141197 
L 73.569677 -191.972711 
L 73.140404 -203.552491 
L 72.757813 -196.55754 
L 72.416829 -199.680483 
L 72.112927 -197.456387 
L 71.842074 -199.029143 
L 69.622301 -265.263068 
z
" style="stroke: #ff0000; stroke-opacity: 0.2"/>
    </defs>
    <g clip-path="url(#pe3c2664c26)">
     <use xlink:href="#m8854e44537" x="0" y="567.274375" style="fill: #ff0000; fill-opacity: 0.2; stroke: #ff0000; stroke-opacity: 0.2"/>
    </g>
   </g>
   <g id="matplotlib.axis_5">
    <g id="xtick_13">
     <g id="line2d_49">
      <g>
       <use xlink:href="#m647e4b736f" x="69.622301" y="529.718125" style="stroke: #000000; stroke-width: 0.8"/>
      </g>
     </g>
     <g id="text_18">
      <text style="font: 10px 'sans-serif'; text-anchor: middle" x="69.622301" y="544.316562" transform="rotate(-0, 69.622301, 544.316562)">0.0</text>
     </g>
    </g>
    <g id="xtick_14">
     <g id="line2d_50">
      <g>
       <use xlink:href="#m647e4b736f" x="114.017756" y="529.718125" style="stroke: #000000; stroke-width: 0.8"/>
      </g>
     </g>
     <g id="text_19">
      <text style="font: 10px 'sans-serif'; text-anchor: middle" x="114.017756" y="544.316562" transform="rotate(-0, 114.017756, 544.316562)">0.2</text>
     </g>
    </g>
    <g id="xtick_15">
     <g id="line2d_51">
      <g>
       <use xlink:href="#m647e4b736f" x="158.41321" y="529.718125" style="stroke: #000000; stroke-width: 0.8"/>
      </g>
     </g>
     <g id="text_20">
      <text style="font: 10px 'sans-serif'; text-anchor: middle" x="158.41321" y="544.316562" transform="rotate(-0, 158.41321, 544.316562)">0.4</text>
     </g>
    </g>
    <g id="xtick_16">
     <g id="line2d_52">
      <g>
       <use xlink:href="#m647e4b736f" x="202.808665" y="529.718125" style="stroke: #000000; stroke-width: 0.8"/>
      </g>
     </g>
     <g id="text_21">
      <text style="font: 10px 'sans-serif'; text-anchor: middle" x="202.808665" y="544.316562" transform="rotate(-0, 202.808665, 544.316562)">0.6</text>
     </g>
    </g>
    <g id="xtick_17">
     <g id="line2d_53">
      <g>
       <use xlink:href="#m647e4b736f" x="247.204119" y="529.718125" style="stroke: #000000; stroke-width: 0.8"/>
      </g>
     </g>
     <g id="text_22">
      <text style="font: 10px 'sans-serif'; text-anchor: middle" x="247.204119" y="544.316562" transform="rotate(-0, 247.204119, 544.316562)">0.8</text>
     </g>
    </g>
    <g id="xtick_18">
     <g id="line2d_54">
      <g>
       <use xlink:href="#m647e4b736f" x="291.599574" y="529.718125" style="stroke: #000000; stroke-width: 0.8"/>
      </g>
     </g>
     <g id="text_23">
      <text style="font: 10px 'sans-serif'; text-anchor: middle" x="291.599574" y="544.316562" transform="rotate(-0, 291.599574, 544.316562)">1.0</text>
     </g>
    </g>
    <g id="text_24">
     <text style="font: 10px 'sans-serif'; text-anchor: middle" x="180.610938" y="557.994687" transform="rotate(-0, 180.610938, 557.994687)">Sigma</text>
    </g>
   </g>
   <g id="matplotlib.axis_6">
    <g id="ytick_17">
     <g id="line2d_55">
      <g>
       <use xlink:href="#m1375f0c8a0" x="58.523438" y="518.874943" style="stroke: #000000; stroke-width: 0.8"/>
      </g>
     </g>
     <g id="text_25">
      <text style="font: 10px 'sans-serif'; text-anchor: end" x="51.523438" y="522.674162" transform="rotate(-0, 51.523438, 522.674162)">−1.00</text>
     </g>
    </g>
    <g id="ytick_18">
     <g id="line2d_56">
      <g>
       <use xlink:href="#m1375f0c8a0" x="58.523438" y="490.174208" style="stroke: #000000; stroke-width: 0.8"/>
      </g>
     </g>
     <g id="text_26">
      <text style="font: 10px 'sans-serif'; text-anchor: end" x="51.523438" y="493.973426" transform="rotate(-0, 51.523438, 493.973426)">−0.75</text>
     </g>
    </g>
    <g id="ytick_19">
     <g id="line2d_57">
      <g>
       <use xlink:href="#m1375f0c8a0" x="58.523438" y="461.473472" style="stroke: #000000; stroke-width: 0.8"/>
      </g>
     </g>
     <g id="text_27">
      <text style="font: 10px 'sans-serif'; text-anchor: end" x="51.523438" y="465.272691" transform="rotate(-0, 51.523438, 465.272691)">−0.50</text>
     </g>
    </g>
    <g id="ytick_20">
     <g id="line2d_58">
      <g>
       <use xlink:href="#m1375f0c8a0" x="58.523438" y="432.772737" style="stroke: #000000; stroke-width: 0.8"/>
      </g>
     </g>
     <g id="text_28">
      <text style="font: 10px 'sans-serif'; text-anchor: end" x="51.523438" y="436.571956" transform="rotate(-0, 51.523438, 436.571956)">−0.25</text>
     </g>
    </g>
    <g id="ytick_21">
     <g id="line2d_59">
      <g>
       <use xlink:href="#m1375f0c8a0" x="58.523438" y="404.072001" style="stroke: #000000; stroke-width: 0.8"/>
      </g>
     </g>
     <g id="text_29">
      <text style="font: 10px 'sans-serif'; text-anchor: end" x="51.523438" y="407.87122" transform="rotate(-0, 51.523438, 407.87122)">0.00</text>
     </g>
    </g>
    <g id="ytick_22">
     <g id="line2d_60">
      <g>
       <use xlink:href="#m1375f0c8a0" x="58.523438" y="375.371266" style="stroke: #000000; stroke-width: 0.8"/>
      </g>
     </g>
     <g id="text_30">
      <text style="font: 10px 'sans-serif'; text-anchor: end" x="51.523438" y="379.170485" transform="rotate(-0, 51.523438, 379.170485)">0.25</text>
     </g>
    </g>
    <g id="ytick_23">
     <g id="line2d_61">
      <g>
       <use xlink:href="#m1375f0c8a0" x="58.523438" y="346.670531" style="stroke: #000000; stroke-width: 0.8"/>
      </g>
     </g>
     <g id="text_31">
      <text style="font: 10px 'sans-serif'; text-anchor: end" x="51.523438" y="350.469749" transform="rotate(-0, 51.523438, 350.469749)">0.50</text>
     </g>
    </g>
    <g id="ytick_24">
     <g id="line2d_62">
      <g>
       <use xlink:href="#m1375f0c8a0" x="58.523438" y="317.969795" style="stroke: #000000; stroke-width: 0.8"/>
      </g>
     </g>
     <g id="text_32">
      <text style="font: 10px 'sans-serif'; text-anchor: end" x="51.523438" y="321.769014" transform="rotate(-0, 51.523438, 321.769014)">0.75</text>
     </g>
    </g>
    <g id="text_33">
     <text style="font: 10px 'sans-serif'; text-anchor: middle" x="14.798438" y="410.443125" transform="rotate(-90, 14.798438, 410.443125)">R</text>
    </g>
   </g>
   <g id="line2d_63">
    <path d="M 69.622301 518.874943 
L 71.842074 497.746353 
L 72.112927 507.991181 
L 72.416829 501.305081 
L 72.757813 498.024738 
L 73.140404 492.352778 
L 73.569677 497.576924 
L 74.05133 500.815121 
L 74.591753 497.128205 
L 75.198118 488.280761 
L 75.878471 488.240227 
L 76.641839 487.552301 
L 77.498352 487.816857 
L 78.459376 476.072115 
L 79.537662 474.433344 
L 80.747519 477.077367 
L 82.105001 470.50492 
L 83.62812 466.000333 
L 85.337089 475.670186 
L 87.254583 456.117939 
L 89.406046 462.036446 
L 91.820028 452.261177 
L 94.528561 449.434345 
L 97.567584 448.151737 
L 100.977424 455.276695 
L 104.803328 445.675048 
L 109.096062 439.946225 
L 113.91259 441.537434 
L 119.316822 442.876941 
L 125.380471 435.802628 
L 132.183997 434.152672 
L 139.817678 420.971376 
L 148.38281 427.955137 
L 157.993045 435.674251 
L 168.775907 426.073703 
L 180.874476 426.230898 
L 194.449295 418.391389 
L 209.680492 424.103235 
L 226.770176 412.892662 
L 245.945116 413.910097 
L 267.459754 415.061274 
L 291.599574 410.056344 
" clip-path="url(#pe3c2664c26)" style="fill: none; stroke: #0000ff; stroke-width: 1.5; stroke-linecap: square"/>
   </g>
   <g id="line2d_64">
    <path d="M 69.622301 305.201775 
L 71.842074 382.430226 
L 72.112927 385.050885 
L 72.416829 380.84294 
L 72.757813 384.15081 
L 73.140404 375.81849 
L 73.569677 386.024142 
L 74.05133 381.017423 
L 74.591753 390.88851 
L 75.198118 395.624282 
L 75.878471 383.226721 
L 76.641839 396.253225 
L 77.498352 387.552611 
L 78.459376 396.22254 
L 79.537662 387.61212 
L 80.747519 389.142229 
L 82.105001 392.081682 
L 83.62812 400.221144 
L 85.337089 395.637804 
L 87.254583 390.39898 
L 89.406046 385.36696 
L 91.820028 399.151188 
L 94.528561 399.809261 
L 97.567584 398.496677 
L 100.977424 394.663076 
L 104.803328 399.504052 
L 109.096062 409.281167 
L 113.91259 402.024108 
L 119.316822 401.758272 
L 125.380471 402.954142 
L 132.183997 397.223898 
L 139.817678 399.970905 
L 148.38281 399.526064 
L 157.993045 410.700583 
L 168.775907 402.871344 
L 180.874476 406.006525 
L 194.449295 405.426053 
L 209.680492 407.3552 
L 226.770176 398.15646 
L 245.945116 400.897785 
L 267.459754 400.880452 
L 291.599574 398.311729 
" clip-path="url(#pe3c2664c26)" style="fill: none; stroke: #ff0000; stroke-width: 1.5; stroke-linecap: square"/>
   </g>
   <g id="line2d_65"/>
   <g id="line2d_66"/>
   <g id="line2d_67">
    <path d="M 69.622301 404.072001 
L 291.599574 404.072001 
" clip-path="url(#pe3c2664c26)" style="fill: none; stroke-dasharray: 5.55,2.4; stroke-dashoffset: 0; stroke: #000000; stroke-width: 1.5"/>
   </g>
   <g id="patch_15">
    <path d="M 58.523438 529.718125 
L 58.523438 291.168125 
" style="fill: none; stroke: #000000; stroke-width: 0.8; stroke-linejoin: miter; stroke-linecap: square"/>
   </g>
   <g id="patch_16">
    <path d="M 302.698438 529.718125 
L 302.698438 291.168125 
" style="fill: none; stroke: #000000; stroke-width: 0.8; stroke-linejoin: miter; stroke-linecap: square"/>
   </g>
   <g id="patch_17">
    <path d="M 58.523438 529.718125 
L 302.698438 529.718125 
" style="fill: none; stroke: #000000; stroke-width: 0.8; stroke-linejoin: miter; stroke-linecap: square"/>
   </g>
   <g id="patch_18">
    <path d="M 58.523438 291.168125 
L 302.698438 291.168125 
" style="fill: none; stroke: #000000; stroke-width: 0.8; stroke-linejoin: miter; stroke-linecap: square"/>
   </g>
   <g id="text_34">
    <text style="font: 12px 'sans-serif'; text-anchor: middle" x="180.610938" y="285.168125" transform="rotate(-0, 180.610938, 285.168125)">case_control, n=100</text>
   </g>
   <g id="legend_3">
    <g id="patch_19">
     <path d="M 212.54375 343.2025 
L 295.698438 343.2025 
Q 297.698438 343.2025 297.698438 341.2025 
L 297.698438 298.168125 
Q 297.698438 296.168125 295.698438 296.168125 
L 212.54375 296.168125 
Q 210.54375 296.168125 210.54375 298.168125 
L 210.54375 341.2025 
Q 210.54375 343.2025 212.54375 343.2025 
z
" style="fill: #ffffff; opacity: 0.8; stroke: #cccccc; stroke-linejoin: miter"/>
    </g>
    <g id="text_35">
     <text style="font: 10px 'sans-serif'; text-anchor: start" x="226.364063" y="307.766562" transform="rotate(-0, 226.364063, 307.766562)">Hypothesis</text>
    </g>
    <g id="line2d_68">
     <path d="M 214.54375 318.944687 
L 224.54375 318.944687 
L 234.54375 318.944687 
" style="fill: none; stroke: #0000ff; stroke-width: 1.5; stroke-linecap: square"/>
    </g>
    <g id="text_36">
     <text style="font: 10px 'sans-serif'; text-anchor: start" x="242.54375" y="322.444687" transform="rotate(-0, 242.54375, 322.444687)">marker</text>
    </g>
    <g id="line2d_69">
     <path d="M 214.54375 333.622812 
L 224.54375 333.622812 
L 234.54375 333.622812 
" style="fill: none; stroke: #ff0000; stroke-width: 1.5; stroke-linecap: square"/>
    </g>
    <g id="text_37">
     <text style="font: 10px 'sans-serif'; text-anchor: start" x="242.54375" y="337.122812" transform="rotate(-0, 242.54375, 337.122812)">expansion</text>
    </g>
   </g>
  </g>
  <g id="axes_4">
   <g id="patch_20">
    <path d="M 316.998437 529.718125 
L 561.173437 529.718125 
L 561.173437 291.168125 
L 316.998437 291.168125 
z
" style="fill: #ffffff"/>
   </g>
   <g id="PolyCollection_7">
    <defs>
     <path id="m41d752afaa" d="M 328.097301 -48.399432 
L 328.097301 -48.399432 
L 330.317074 -57.729134 
L 330.587927 -59.559124 
L 330.891829 -59.680753 
L 331.232813 -61.86106 
L 331.615404 -63.283793 
L 332.044677 -64.486309 
L 332.52633 -67.094034 
L 333.066753 -65.910413 
L 333.673118 -68.726363 
L 334.353471 -70.635448 
L 335.116839 -72.550322 
L 335.973352 -74.107799 
L 336.934376 -77.665371 
L 338.012662 -81.570463 
L 339.222519 -85.151715 
L 340.580001 -85.83909 
L 342.10312 -90.98621 
L 343.812089 -95.413733 
L 345.729583 -95.8096 
L 347.881046 -97.596318 
L 350.295028 -106.121206 
L 353.003561 -104.823261 
L 356.042584 -110.276209 
L 359.452424 -110.983279 
L 363.278328 -116.737898 
L 367.571062 -115.860859 
L 372.38759 -118.581106 
L 377.791822 -119.541079 
L 383.855471 -128.87067 
L 390.658997 -131.868716 
L 398.292678 -133.658238 
L 406.85781 -134.396232 
L 416.468045 -139.315535 
L 427.250907 -140.640231 
L 439.349476 -142.12357 
L 452.924295 -144.703962 
L 468.155492 -144.496799 
L 485.245176 -149.386157 
L 504.420116 -146.781443 
L 525.934754 -149.071777 
L 550.074574 -149.433202 
L 550.074574 -154.925651 
L 550.074574 -154.925651 
L 525.934754 -154.019935 
L 504.420116 -153.092451 
L 485.245176 -153.232022 
L 468.155492 -150.410617 
L 452.924295 -150.234745 
L 439.349476 -147.051417 
L 427.250907 -145.028595 
L 416.468045 -144.175813 
L 406.85781 -138.172629 
L 398.292678 -141.330555 
L 390.658997 -138.354034 
L 383.855471 -133.277728 
L 377.791822 -127.8806 
L 372.38759 -125.106392 
L 367.571062 -124.088597 
L 363.278328 -124.742622 
L 359.452424 -114.677182 
L 356.042584 -114.652666 
L 353.003561 -109.794847 
L 350.295028 -110.528581 
L 347.881046 -108.606861 
L 345.729583 -102.873246 
L 343.812089 -101.913343 
L 342.10312 -96.187959 
L 340.580001 -90.98229 
L 339.222519 -93.671024 
L 338.012662 -86.039538 
L 336.934376 -84.399593 
L 335.973352 -79.437724 
L 335.116839 -77.107271 
L 334.353471 -74.843191 
L 333.673118 -72.633624 
L 333.066753 -69.898811 
L 332.52633 -71.35671 
L 332.044677 -67.487831 
L 331.615404 -66.367313 
L 331.232813 -65.231524 
L 330.891829 -61.480942 
L 330.587927 -61.205032 
L 330.317074 -60.108295 
L 328.097301 -48.399432 
z
" style="stroke: #0000ff; stroke-opacity: 0.2"/>
    </defs>
    <g clip-path="url(#p78aa769f3f)">
     <use xlink:href="#m41d752afaa" x="0" y="567.274375" style="fill: #0000ff; fill-opacity: 0.2; stroke: #0000ff; stroke-opacity: 0.2"/>
    </g>
   </g>
   <g id="PolyCollection_8">
    <defs>
     <path id="m6b11cb873a" d="M 328.097301 -245.29996 
L 328.097301 -235.794649 
L 330.317074 -185.71866 
L 330.587927 -188.93369 
L 330.891829 -186.430285 
L 331.232813 -178.050738 
L 331.615404 -181.58898 
L 332.044677 -180.987894 
L 332.52633 -179.037721 
L 333.066753 -178.042658 
L 333.673118 -180.816779 
L 334.353471 -177.984584 
L 335.116839 -174.101997 
L 335.973352 -172.320666 
L 336.934376 -175.449906 
L 338.012662 -175.090058 
L 339.222519 -171.315775 
L 340.580001 -171.856006 
L 342.10312 -169.968152 
L 343.812089 -170.792039 
L 345.729583 -170.915366 
L 347.881046 -167.428024 
L 350.295028 -166.766322 
L 353.003561 -167.060117 
L 356.042584 -168.198897 
L 359.452424 -167.21171 
L 363.278328 -163.60589 
L 367.571062 -165.929115 
L 372.38759 -164.945077 
L 377.791822 -164.632159 
L 383.855471 -163.42956 
L 390.658997 -164.870389 
L 398.292678 -163.711748 
L 406.85781 -162.673661 
L 416.468045 -162.100674 
L 427.250907 -164.127448 
L 439.349476 -163.010894 
L 452.924295 -160.584588 
L 468.155492 -163.049496 
L 485.245176 -163.818567 
L 504.420116 -160.957754 
L 525.934754 -160.143114 
L 550.074574 -158.991676 
L 550.074574 -166.685505 
L 550.074574 -166.685505 
L 525.934754 -165.553728 
L 504.420116 -165.563042 
L 485.245176 -167.646392 
L 468.155492 -167.281308 
L 452.924295 -166.177954 
L 439.349476 -167.000779 
L 427.250907 -168.864745 
L 416.468045 -168.116733 
L 406.85781 -166.533395 
L 398.292678 -169.273741 
L 390.658997 -169.213193 
L 383.855471 -167.833069 
L 377.791822 -169.301191 
L 372.38759 -168.040916 
L 367.571062 -170.671165 
L 363.278328 -169.953256 
L 359.452424 -171.905468 
L 356.042584 -171.48821 
L 353.003561 -171.26281 
L 350.295028 -172.25446 
L 347.881046 -172.12837 
L 345.729583 -175.09558 
L 343.812089 -174.77874 
L 342.10312 -175.272262 
L 340.580001 -178.772219 
L 339.222519 -177.274543 
L 338.012662 -180.751546 
L 336.934376 -182.051857 
L 335.973352 -179.189817 
L 335.116839 -182.893851 
L 334.353471 -184.157419 
L 333.673118 -189.71176 
L 333.066753 -187.710629 
L 332.52633 -185.315315 
L 332.044677 -189.303205 
L 331.615404 -191.141781 
L 331.232813 -190.136894 
L 330.891829 -193.610079 
L 330.587927 -193.938307 
L 330.317074 -195.531427 
L 328.097301 -245.29996 
z
" style="stroke: #ff0000; stroke-opacity: 0.2"/>
    </defs>
    <g clip-path="url(#p78aa769f3f)">
     <use xlink:href="#m6b11cb873a" x="0" y="567.274375" style="fill: #ff0000; fill-opacity: 0.2; stroke: #ff0000; stroke-opacity: 0.2"/>
    </g>
   </g>
   <g id="matplotlib.axis_7">
    <g id="xtick_19">
     <g id="line2d_70">
      <g>
       <use xlink:href="#m647e4b736f" x="328.097301" y="529.718125" style="stroke: #000000; stroke-width: 0.8"/>
      </g>
     </g>
     <g id="text_38">
      <text style="font: 10px 'sans-serif'; text-anchor: middle" x="328.097301" y="544.316562" transform="rotate(-0, 328.097301, 544.316562)">0.0</text>
     </g>
    </g>
    <g id="xtick_20">
     <g id="line2d_71">
      <g>
       <use xlink:href="#m647e4b736f" x="372.492756" y="529.718125" style="stroke: #000000; stroke-width: 0.8"/>
      </g>
     </g>
     <g id="text_39">
      <text style="font: 10px 'sans-serif'; text-anchor: middle" x="372.492756" y="544.316562" transform="rotate(-0, 372.492756, 544.316562)">0.2</text>
     </g>
    </g>
    <g id="xtick_21">
     <g id="line2d_72">
      <g>
       <use xlink:href="#m647e4b736f" x="416.88821" y="529.718125" style="stroke: #000000; stroke-width: 0.8"/>
      </g>
     </g>
     <g id="text_40">
      <text style="font: 10px 'sans-serif'; text-anchor: middle" x="416.88821" y="544.316562" transform="rotate(-0, 416.88821, 544.316562)">0.4</text>
     </g>
    </g>
    <g id="xtick_22">
     <g id="line2d_73">
      <g>
       <use xlink:href="#m647e4b736f" x="461.283665" y="529.718125" style="stroke: #000000; stroke-width: 0.8"/>
      </g>
     </g>
     <g id="text_41">
      <text style="font: 10px 'sans-serif'; text-anchor: middle" x="461.283665" y="544.316562" transform="rotate(-0, 461.283665, 544.316562)">0.6</text>
     </g>
    </g>
    <g id="xtick_23">
     <g id="line2d_74">
      <g>
       <use xlink:href="#m647e4b736f" x="505.679119" y="529.718125" style="stroke: #000000; stroke-width: 0.8"/>
      </g>
     </g>
     <g id="text_42">
      <text style="font: 10px 'sans-serif'; text-anchor: middle" x="505.679119" y="544.316562" transform="rotate(-0, 505.679119, 544.316562)">0.8</text>
     </g>
    </g>
    <g id="xtick_24">
     <g id="line2d_75">
      <g>
       <use xlink:href="#m647e4b736f" x="550.074574" y="529.718125" style="stroke: #000000; stroke-width: 0.8"/>
      </g>
     </g>
     <g id="text_43">
      <text style="font: 10px 'sans-serif'; text-anchor: middle" x="550.074574" y="544.316562" transform="rotate(-0, 550.074574, 544.316562)">1.0</text>
     </g>
    </g>
    <g id="text_44">
     <text style="font: 10px 'sans-serif'; text-anchor: middle" x="439.085937" y="557.994687" transform="rotate(-0, 439.085937, 557.994687)">Sigma</text>
    </g>
   </g>
   <g id="matplotlib.axis_8">
    <g id="ytick_25">
     <g id="line2d_76">
      <g>
       <use xlink:href="#m1375f0c8a0" x="316.998437" y="518.874943" style="stroke: #000000; stroke-width: 0.8"/>
      </g>
     </g>
    </g>
    <g id="ytick_26">
     <g id="line2d_77">
      <g>
       <use xlink:href="#m1375f0c8a0" x="316.998437" y="490.174208" style="stroke: #000000; stroke-width: 0.8"/>
      </g>
     </g>
    </g>
    <g id="ytick_27">
     <g id="line2d_78">
      <g>
       <use xlink:href="#m1375f0c8a0" x="316.998437" y="461.473472" style="stroke: #000000; stroke-width: 0.8"/>
      </g>
     </g>
    </g>
    <g id="ytick_28">
     <g id="line2d_79">
      <g>
       <use xlink:href="#m1375f0c8a0" x="316.998437" y="432.772737" style="stroke: #000000; stroke-width: 0.8"/>
      </g>
     </g>
    </g>
    <g id="ytick_29">
     <g id="line2d_80">
      <g>
       <use xlink:href="#m1375f0c8a0" x="316.998437" y="404.072001" style="stroke: #000000; stroke-width: 0.8"/>
      </g>
     </g>
    </g>
    <g id="ytick_30">
     <g id="line2d_81">
      <g>
       <use xlink:href="#m1375f0c8a0" x="316.998437" y="375.371266" style="stroke: #000000; stroke-width: 0.8"/>
      </g>
     </g>
    </g>
    <g id="ytick_31">
     <g id="line2d_82">
      <g>
       <use xlink:href="#m1375f0c8a0" x="316.998437" y="346.670531" style="stroke: #000000; stroke-width: 0.8"/>
      </g>
     </g>
    </g>
    <g id="ytick_32">
     <g id="line2d_83">
      <g>
       <use xlink:href="#m1375f0c8a0" x="316.998437" y="317.969795" style="stroke: #000000; stroke-width: 0.8"/>
      </g>
     </g>
    </g>
   </g>
   <g id="line2d_84">
    <path d="M 328.097301 518.874943 
L 330.317074 508.510337 
L 330.587927 506.856937 
L 330.891829 506.668336 
L 331.232813 503.690882 
L 331.615404 502.488352 
L 332.044677 501.277972 
L 332.52633 498.238646 
L 333.066753 499.361846 
L 333.673118 496.728084 
L 334.353471 494.56127 
L 335.116839 492.303328 
L 335.973352 490.56004 
L 336.934376 486.491178 
L 338.012662 483.422495 
L 339.222519 478.03926 
L 340.580001 478.756841 
L 342.10312 473.769431 
L 343.812089 468.583835 
L 345.729583 467.813469 
L 347.881046 464.546442 
L 350.295028 459.095718 
L 353.003561 459.83499 
L 356.042584 454.80768 
L 359.452424 454.545972 
L 363.278328 446.590161 
L 367.571062 447.530918 
L 372.38759 445.455689 
L 377.791822 443.433938 
L 383.855471 436.011309 
L 390.658997 432.054973 
L 398.292678 429.834289 
L 406.85781 431.108108 
L 416.468045 425.470369 
L 427.250907 424.19293 
L 439.349476 422.761688 
L 452.924295 420.270601 
L 468.155492 419.768278 
L 485.245176 416.058866 
L 504.420116 417.345974 
L 525.934754 415.767289 
L 550.074574 415.127401 
" clip-path="url(#p78aa769f3f)" style="fill: none; stroke: #0000ff; stroke-width: 1.5; stroke-linecap: square"/>
   </g>
   <g id="line2d_85">
    <path d="M 328.097301 326.62644 
L 330.317074 376.246092 
L 330.587927 376.011416 
L 330.891829 376.816609 
L 331.232813 383.209979 
L 331.615404 380.899241 
L 332.044677 382.191744 
L 332.52633 384.898556 
L 333.066753 384.516685 
L 333.673118 382.115023 
L 334.353471 386.15004 
L 335.116839 389.241337 
L 335.973352 391.493027 
L 336.934376 388.42531 
L 338.012662 389.260787 
L 339.222519 392.857943 
L 340.580001 391.91739 
L 342.10312 394.797357 
L 343.812089 394.575116 
L 345.729583 394.287905 
L 347.881046 397.358096 
L 350.295028 397.936095 
L 353.003561 398.109018 
L 356.042584 397.505015 
L 359.452424 397.45448 
L 363.278328 400.613212 
L 367.571062 399.192139 
L 372.38759 400.767564 
L 377.791822 400.541454 
L 383.855471 401.560865 
L 390.658997 400.389682 
L 398.292678 400.956209 
L 406.85781 402.562753 
L 416.468045 402.051176 
L 427.250907 400.774597 
L 439.349476 402.22336 
L 452.924295 404.073991 
L 468.155492 402.182676 
L 485.245176 401.671723 
L 504.420116 404.266287 
L 525.934754 404.496403 
L 550.074574 404.318891 
" clip-path="url(#p78aa769f3f)" style="fill: none; stroke: #ff0000; stroke-width: 1.5; stroke-linecap: square"/>
   </g>
   <g id="line2d_86"/>
   <g id="line2d_87"/>
   <g id="line2d_88">
    <path d="M 328.097301 404.072001 
L 550.074574 404.072001 
" clip-path="url(#p78aa769f3f)" style="fill: none; stroke-dasharray: 5.55,2.4; stroke-dashoffset: 0; stroke: #000000; stroke-width: 1.5"/>
   </g>
   <g id="patch_21">
    <path d="M 316.998437 529.718125 
L 316.998437 291.168125 
" style="fill: none; stroke: #000000; stroke-width: 0.8; stroke-linejoin: miter; stroke-linecap: square"/>
   </g>
   <g id="patch_22">
    <path d="M 561.173437 529.718125 
L 561.173437 291.168125 
" style="fill: none; stroke: #000000; stroke-width: 0.8; stroke-linejoin: miter; stroke-linecap: square"/>
   </g>
   <g id="patch_23">
    <path d="M 316.998437 529.718125 
L 561.173437 529.718125 
" style="fill: none; stroke: #000000; stroke-width: 0.8; stroke-linejoin: miter; stroke-linecap: square"/>
   </g>
   <g id="patch_24">
    <path d="M 316.998437 291.168125 
L 561.173437 291.168125 
" style="fill: none; stroke: #000000; stroke-width: 0.8; stroke-linejoin: miter; stroke-linecap: square"/>
   </g>
   <g id="text_45">
    <text style="font: 12px 'sans-serif'; text-anchor: middle" x="439.085937" y="285.168125" transform="rotate(-0, 439.085937, 285.168125)">case_control, n=1000</text>
   </g>
   <g id="legend_4">
    <g id="patch_25">
     <path d="M 471.01875 343.2025 
L 554.173437 343.2025 
Q 556.173437 343.2025 556.173437 341.2025 
L 556.173437 298.168125 
Q 556.173437 296.168125 554.173437 296.168125 
L 471.01875 296.168125 
Q 469.01875 296.168125 469.01875 298.168125 
L 469.01875 341.2025 
Q 469.01875 343.2025 471.01875 343.2025 
z
" style="fill: #ffffff; opacity: 0.8; stroke: #cccccc; stroke-linejoin: miter"/>
    </g>
    <g id="text_46">
     <text style="font: 10px 'sans-serif'; text-anchor: start" x="484.839062" y="307.766562" transform="rotate(-0, 484.839062, 307.766562)">Hypothesis</text>
    </g>
    <g id="line2d_89">
     <path d="M 473.01875 318.944687 
L 483.01875 318.944687 
L 493.01875 318.944687 
" style="fill: none; stroke: #0000ff; stroke-width: 1.5; stroke-linecap: square"/>
    </g>
    <g id="text_47">
     <text style="font: 10px 'sans-serif'; text-anchor: start" x="501.01875" y="322.444687" transform="rotate(-0, 501.01875, 322.444687)">marker</text>
    </g>
    <g id="line2d_90">
     <path d="M 473.01875 333.622812 
L 483.01875 333.622812 
L 493.01875 333.622812 
" style="fill: none; stroke: #ff0000; stroke-width: 1.5; stroke-linecap: square"/>
    </g>
    <g id="text_48">
     <text style="font: 10px 'sans-serif'; text-anchor: start" x="501.01875" y="337.122812" transform="rotate(-0, 501.01875, 337.122812)">expansion</text>
    </g>
   </g>
  </g>
 </g>
 <defs>
  <clipPath id="p06f76b0ef4">
   <rect x="58.523438" y="22.318125" width="244.175" height="238.55"/>
  </clipPath>
  <clipPath id="pc75e93729b">
   <rect x="316.998437" y="22.318125" width="244.175" height="238.55"/>
  </clipPath>
  <clipPath id="pe3c2664c26">
   <rect x="58.523438" y="291.168125" width="244.175" height="238.55"/>
  </clipPath>
  <clipPath id="p78aa769f3f">
   <rect x="316.998437" y="291.168125" width="244.175" height="238.55"/>
  </clipPath>
 </defs>
</svg>
